<svg width="42" height="42" viewBox="0 0 42 42" fill="none" xmlns="http://www.w3.org/2000/svg">
<g id="clipboard-data-fill 1">
<path id="Vector" d="M17.0625 0C16.0182 0 15.0167 0.414843 14.2783 1.15327C13.5398 1.89169 13.125 2.89321 13.125 3.9375V6.5625C13.125 7.60679 13.5398 8.60831 14.2783 9.34673C15.0167 10.0852 16.0182 10.5 17.0625 10.5H24.9375C25.9818 10.5 26.9833 10.0852 27.7217 9.34673C28.4602 8.60831 28.875 7.60679 28.875 6.5625V3.9375C28.875 2.89321 28.4602 1.89169 27.7217 1.15327C26.9833 0.414843 25.9818 0 24.9375 0L17.0625 0ZM24.9375 2.625C25.2856 2.625 25.6194 2.76328 25.8656 3.00942C26.1117 3.25556 26.25 3.5894 26.25 3.9375V6.5625C26.25 6.9106 26.1117 7.24444 25.8656 7.49058C25.6194 7.73672 25.2856 7.875 24.9375 7.875H17.0625C16.7144 7.875 16.3806 7.73672 16.1344 7.49058C15.8883 7.24444 15.75 6.9106 15.75 6.5625V3.9375C15.75 3.5894 15.8883 3.25556 16.1344 3.00942C16.3806 2.76328 16.7144 2.625 17.0625 2.625H24.9375Z" fill="white"/>
<path id="Vector_2" d="M10.5 3.9375H7.875C6.48261 3.9375 5.14726 4.49062 4.16269 5.47519C3.17812 6.45976 2.625 7.79511 2.625 9.1875V36.75C2.625 38.1424 3.17812 39.4777 4.16269 40.4623C5.14726 41.4469 6.48261 42 7.875 42H34.125C35.5174 42 36.8527 41.4469 37.8373 40.4623C38.8219 39.4777 39.375 38.1424 39.375 36.75V9.1875C39.375 7.79511 38.8219 6.45976 37.8373 5.47519C36.8527 4.49062 35.5174 3.9375 34.125 3.9375H31.5V6.5625C31.5 7.4243 31.3303 8.27766 31.0005 9.07386C30.6707 9.87006 30.1873 10.5935 29.5779 11.2029C28.9685 11.8123 28.2451 12.2957 27.4489 12.6255C26.6527 12.9553 25.7993 13.125 24.9375 13.125H17.0625C15.322 13.125 13.6528 12.4336 12.4221 11.2029C11.1914 9.97218 10.5 8.30298 10.5 6.5625V3.9375ZM26.25 21C26.25 20.3038 26.5266 19.6361 27.0188 19.1438C27.5111 18.6516 28.1788 18.375 28.875 18.375C29.5712 18.375 30.2389 18.6516 30.7312 19.1438C31.2234 19.6361 31.5 20.3038 31.5 21V34.125C31.5 34.8212 31.2234 35.4889 30.7312 35.9812C30.2389 36.4734 29.5712 36.75 28.875 36.75C28.1788 36.75 27.5111 36.4734 27.0188 35.9812C26.5266 35.4889 26.25 34.8212 26.25 34.125V21ZM10.5 31.5C10.5 30.8038 10.7766 30.1361 11.2688 29.6438C11.7611 29.1516 12.4288 28.875 13.125 28.875C13.8212 28.875 14.4889 29.1516 14.9812 29.6438C15.4734 30.1361 15.75 30.8038 15.75 31.5V34.125C15.75 34.8212 15.4734 35.4889 14.9812 35.9812C14.4889 36.4734 13.8212 36.75 13.125 36.75C12.4288 36.75 11.7611 36.4734 11.2688 35.9812C10.7766 35.4889 10.5 34.8212 10.5 34.125V31.5ZM21 23.625C21.6962 23.625 22.3639 23.9016 22.8562 24.3938C23.3484 24.8861 23.625 25.5538 23.625 26.25V34.125C23.625 34.8212 23.3484 35.4889 22.8562 35.9812C22.3639 36.4734 21.6962 36.75 21 36.75C20.3038 36.75 19.6361 36.4734 19.1438 35.9812C18.6516 35.4889 18.375 34.8212 18.375 34.125V26.25C18.375 25.5538 18.6516 24.8861 19.1438 24.3938C19.6361 23.9016 20.3038 23.625 21 23.625Z" fill="white"/>
</g>
</svg>
