<svg width="42" height="45" viewBox="0 0 42 45" fill="none" xmlns="http://www.w3.org/2000/svg">
<g id="gear-wide-connected 1" clip-path="url(#clip0_210_32)">
<path id="Vector" d="M18.5536 2.04481C19.1915 -0.683313 22.8061 -0.683313 23.4466 2.04481L23.633 2.84919C23.742 3.31664 23.9658 3.74432 24.2812 4.08783C24.5965 4.43135 24.992 4.67818 25.4264 4.80273C25.8608 4.92727 26.3184 4.92499 26.7518 4.79611C27.1851 4.66723 27.5784 4.41646 27.8907 4.06981L28.4288 3.47637C30.2532 1.45419 33.3848 3.392 32.663 6.09481L32.453 6.89356C32.3293 7.35664 32.3236 7.84671 32.4363 8.31298C32.549 8.77925 32.776 9.20473 33.0939 9.5453C33.4118 9.88588 33.8089 10.1292 34.244 10.2499C34.6792 10.3706 35.1366 10.3645 35.5688 10.232L36.3117 10.0042C38.8317 9.23075 40.643 12.5861 38.7556 14.5407L38.2017 15.1173C37.8782 15.452 37.6441 15.8733 37.5238 16.3376C37.4035 16.8019 37.4014 17.2922 37.5177 17.7577C37.6339 18.2231 37.8643 18.6468 38.1849 18.9847C38.5055 19.3225 38.9047 19.5623 39.341 19.6792L40.0917 19.8789C42.638 20.5623 42.638 24.4351 40.0917 25.1214L39.341 25.3211C38.9047 25.4379 38.5055 25.6777 38.1849 26.0156C37.8643 26.3535 37.6339 26.7771 37.5177 27.2426C37.4014 27.7081 37.4035 28.1984 37.5238 28.6626C37.6441 29.1269 37.8782 29.5483 38.2017 29.8829L38.7556 30.4595C40.643 32.4142 38.8343 35.7695 36.3117 34.9961L35.5662 34.7711C35.134 34.6386 34.6766 34.6324 34.2414 34.7532C33.8062 34.8739 33.4091 35.1172 33.0913 35.4578C32.7734 35.7983 32.5463 36.2238 32.4336 36.6901C32.3209 37.1563 32.3267 37.6464 32.4503 38.1095L32.663 38.9054C33.3848 41.6054 30.2532 43.5461 28.4288 41.5239L27.8907 40.9304C27.5784 40.5838 27.1851 40.333 26.7518 40.2041C26.3184 40.0753 25.8608 40.073 25.4264 40.1975C24.992 40.3221 24.5965 40.5689 24.2812 40.9124C23.9658 41.2559 23.742 41.6836 23.633 42.1511L23.4466 42.9554C22.8087 45.6836 19.1941 45.6836 18.5536 42.9554L18.3672 42.1511C18.2582 41.6836 18.0344 41.2559 17.719 40.9124C17.4036 40.5689 17.0082 40.3221 16.5738 40.1975C16.1394 40.073 15.6817 40.0753 15.2484 40.2041C14.8151 40.333 14.4218 40.5838 14.1095 40.9304L13.5713 41.5239C11.747 43.5461 8.61534 41.6082 9.33722 38.9054L9.54722 38.1067C9.67061 37.6439 9.67631 37.1542 9.56371 36.6883C9.45112 36.2223 9.22433 35.7971 8.90682 35.4566C8.58931 35.1161 8.19263 34.8728 7.75785 34.7518C7.32307 34.6307 6.866 34.6364 6.43397 34.7682L5.68847 34.9961C3.16847 35.7695 1.35722 32.4142 3.24459 30.4595L3.79847 29.8829C4.122 29.5483 4.35606 29.1269 4.47634 28.6626C4.59663 28.1984 4.59876 27.7081 4.48252 27.2426C4.36628 26.7771 4.1359 26.3535 3.81529 26.0156C3.49467 25.6777 3.09551 25.4379 2.65922 25.3211L1.90847 25.1214C-0.637783 24.4379 -0.637783 20.5651 1.90847 19.8789L2.65922 19.6792C3.09551 19.5623 3.49467 19.3225 3.81529 18.9847C4.1359 18.6468 4.36628 18.2231 4.48252 17.7577C4.59876 17.2922 4.59663 16.8019 4.47634 16.3376C4.35606 15.8733 4.122 15.452 3.79847 15.1173L3.24459 14.5407C1.35722 12.5861 3.16584 9.23075 5.68847 10.0042L6.43397 10.2292C6.8659 10.3614 7.32296 10.3675 7.75784 10.2469C8.19271 10.1262 8.58958 9.88323 8.90736 9.54305C9.22513 9.20286 9.45226 8.77784 9.56522 8.31201C9.67818 7.84618 9.67287 7.35646 9.54984 6.89356L9.33722 6.09481C8.61534 3.39481 11.747 1.45419 13.5713 3.47637L14.1095 4.06981C14.4218 4.41646 14.8151 4.66723 15.2484 4.79611C15.6817 4.92499 16.1394 4.92727 16.5738 4.80273C17.0082 4.67818 17.4036 4.43135 17.719 4.08783C18.0344 3.74432 18.2582 3.31664 18.3672 2.84919L18.5536 2.04481ZM34.0542 23.9064H21.6563L14.2171 34.5348C16.112 35.7611 18.2657 36.4537 20.4777 36.5481C22.6897 36.6425 24.888 36.1357 26.868 35.0749C28.848 34.014 30.5453 32.4337 31.8017 30.4809C33.0582 28.5281 33.8331 26.2664 34.0542 23.9064ZM34.0542 21.0939C33.8331 18.7339 33.0582 16.4722 31.8017 14.5194C30.5453 12.5666 28.848 10.9862 26.868 9.92535C24.888 8.86451 22.6897 8.35771 20.4777 8.45214C18.2657 8.54657 16.112 9.23917 14.2171 10.4654L21.6563 21.0967L34.0542 21.0939ZM13.2511 11.1573C13.1723 11.2164 13.0988 11.2782 13.0227 11.3401L13.2511 11.1573ZM12.1197 12.1557C10.7819 13.4705 9.71414 15.0692 8.98428 16.8501C8.25443 18.631 7.87848 20.5551 7.88034 22.5001C7.88034 26.5923 9.51309 30.2767 12.1197 32.8445L19.3595 22.5001L12.1197 12.1557Z" fill="white"/>
</g>
<defs>
<clipPath id="clip0_210_32">
<rect width="42" height="45" fill="white"/>
</clipPath>
</defs>
</svg>
