<svg width="841" height="236" viewBox="0 0 841 236" fill="none" xmlns="http://www.w3.org/2000/svg">
<g clip-path="url(#clip0_109_35)">
<path d="M0 0H841V236H0V0Z" fill="#0065FF"/>
<path d="M166.815 169.625L160.294 148.311H127.687L121.165 169.625H100.723L132.327 79.7311H155.528L187.258 169.625H166.815ZM149.258 111.576C148.84 110.155 148.296 108.359 147.627 106.185C146.959 104.012 146.29 101.797 145.621 99.5404C144.952 97.2836 144.409 95.3197 143.99 93.6478C143.573 95.3197 142.987 97.409 142.235 99.9165C141.566 102.341 140.897 104.681 140.228 106.938C139.643 109.111 139.183 110.657 138.848 111.576L132.452 132.389H155.779L149.258 111.576ZM227.193 80.1073C238.73 80.1073 247.133 82.6148 252.4 87.6298C257.752 92.5614 260.427 99.373 260.427 108.066C260.427 111.995 259.842 115.756 258.671 119.35C257.501 122.86 255.536 126.037 252.777 128.878C250.102 131.636 246.548 133.81 242.117 135.398C237.686 136.985 232.209 137.78 225.688 137.78H217.536V169.625H198.599V80.1073H227.193ZM226.189 95.6538H217.536V122.233H223.806C227.402 122.233 230.495 121.774 233.087 120.854C235.679 119.934 237.686 118.472 239.107 116.466C240.528 114.46 241.239 111.869 241.239 108.693C241.239 104.263 240.027 101.003 237.602 98.9135C235.178 96.7401 231.373 95.6538 226.189 95.6538ZM277.349 169.625V80.1073H348.207V169.625H329.269V95.9045H296.286V169.625H277.349ZM370.796 80.1073H387.852V123.362C387.852 125.451 387.81 127.792 387.726 130.383C387.643 132.973 387.559 135.523 387.475 138.031C387.392 140.455 387.309 142.586 387.225 144.425C387.141 146.18 387.058 147.392 386.974 148.061H387.35L428.736 80.1073H451.436V169.625H434.505V126.621C434.505 124.365 434.547 121.899 434.63 119.224C434.714 116.466 434.798 113.833 434.881 111.326C435.049 108.818 435.174 106.645 435.257 104.806C435.425 102.883 435.55 101.63 435.634 101.045H435.132L393.621 169.625H370.796V80.1073ZM547.03 169.625H525.459L492.977 124.239V169.625H474.04V80.1073H492.977V123.487L525.083 80.1073H545.274L512.667 123.111L547.03 169.625ZM637.12 124.741C637.12 131.678 636.242 137.988 634.486 143.672C632.814 149.272 630.222 154.121 626.71 158.216C623.282 162.311 618.851 165.446 613.417 167.619C608.065 169.792 601.753 170.879 594.479 170.879C587.205 170.879 580.851 169.792 575.417 167.619C570.065 165.362 565.635 162.228 562.123 158.216C558.695 154.121 556.103 149.231 554.347 143.547C552.675 137.863 551.839 131.553 551.839 124.615C551.839 115.338 553.344 107.272 556.354 100.418C559.447 93.5644 564.13 88.2566 570.4 84.4954C576.754 80.6508 584.823 78.7281 594.605 78.7281C604.304 78.7281 612.288 80.6508 618.559 84.4954C624.829 88.2566 629.469 93.6057 632.479 100.543C635.573 107.397 637.12 115.463 637.12 124.741ZM571.78 124.741C571.78 131.01 572.574 136.401 574.163 140.914C575.751 145.428 578.217 148.896 581.562 151.32C584.906 153.744 589.212 154.956 594.479 154.956C599.913 154.956 604.262 153.744 607.522 151.32C610.866 148.896 613.291 145.428 614.796 140.914C616.385 136.401 617.179 131.01 617.179 124.741C617.179 115.296 615.423 107.898 611.912 102.549C608.4 97.2003 602.631 94.5254 594.605 94.5254C589.253 94.5254 584.906 95.7371 581.562 98.1613C578.217 100.585 575.751 104.054 574.163 108.567C572.574 113.081 571.78 118.472 571.78 124.741ZM729.034 169.625H710.097V131.01H674.605V169.625H655.668V80.1073H674.605V115.212H710.097V80.1073H729.034V169.625Z" fill="white"/>
</g>
<defs>
<clipPath id="clip0_109_35">
<rect width="841" height="236" fill="white"/>
</clipPath>
</defs>
</svg>
