<svg width="42" height="42" viewBox="0 0 42 42" fill="none" xmlns="http://www.w3.org/2000/svg">
<g id="file-earmark-richtext 1">
<path id="Vector" d="M36.75 11.8125V36.75C36.75 38.1424 36.1969 39.4777 35.2123 40.4623C34.2277 41.4469 32.8924 42 31.5 42H10.5C9.10761 42 7.77226 41.4469 6.78769 40.4623C5.80312 39.4777 5.25 38.1424 5.25 36.75V5.25C5.25 3.85761 5.80312 2.52226 6.78769 1.53769C7.77226 0.553123 9.10761 0 10.5 0L24.9375 0L36.75 11.8125ZM28.875 11.8125C27.8307 11.8125 26.8292 11.3977 26.0908 10.6592C25.3523 9.92081 24.9375 8.91929 24.9375 7.875V2.625H10.5C9.80381 2.625 9.13613 2.90156 8.64384 3.39384C8.15156 3.88613 7.875 4.55381 7.875 5.25V36.75C7.875 37.4462 8.15156 38.1139 8.64384 38.6062C9.13613 39.0984 9.80381 39.375 10.5 39.375H31.5C32.1962 39.375 32.8639 39.0984 33.3562 38.6062C33.8484 38.1139 34.125 37.4462 34.125 36.75V11.8125H28.875Z" fill="white"/>
<path id="Vector_2" d="M11.8125 32.8125C11.8125 32.4644 11.9508 32.1306 12.1969 31.8844C12.4431 31.6383 12.7769 31.5 13.125 31.5H21C21.3481 31.5 21.6819 31.6383 21.9281 31.8844C22.1742 32.1306 22.3125 32.4644 22.3125 32.8125C22.3125 33.1606 22.1742 33.4944 21.9281 33.7406C21.6819 33.9867 21.3481 34.125 21 34.125H13.125C12.7769 34.125 12.4431 33.9867 12.1969 33.7406C11.9508 33.4944 11.8125 33.1606 11.8125 32.8125ZM11.8125 27.5625C11.8125 27.2144 11.9508 26.8806 12.1969 26.6344C12.4431 26.3883 12.7769 26.25 13.125 26.25H28.875C29.2231 26.25 29.5569 26.3883 29.8031 26.6344C30.0492 26.8806 30.1875 27.2144 30.1875 27.5625C30.1875 27.9106 30.0492 28.2444 29.8031 28.4906C29.5569 28.7367 29.2231 28.875 28.875 28.875H13.125C12.7769 28.875 12.4431 28.7367 12.1969 28.4906C11.9508 28.2444 11.8125 27.9106 11.8125 27.5625ZM16.1149 17.829L19.6061 20.1547L24.4729 15.2854C24.5703 15.1877 24.696 15.1232 24.8322 15.101C24.9684 15.0789 25.1081 15.1002 25.2315 15.162L30.1875 17.7188V22.3125C30.1875 22.6606 30.0492 22.9944 29.8031 23.2406C29.5569 23.4867 29.2231 23.625 28.875 23.625H13.125C12.7769 23.625 12.4431 23.4867 12.1969 23.2406C11.9508 22.9944 11.8125 22.6606 11.8125 22.3125V21C11.8125 21 15.855 17.6557 16.1149 17.829ZM16.4062 15.75C16.9284 15.75 17.4292 15.5426 17.7984 15.1734C18.1676 14.8042 18.375 14.3034 18.375 13.7812C18.375 13.2591 18.1676 12.7583 17.7984 12.3891C17.4292 12.0199 16.9284 11.8125 16.4062 11.8125C15.8841 11.8125 15.3833 12.0199 15.0141 12.3891C14.6449 12.7583 14.4375 13.2591 14.4375 13.7812C14.4375 14.3034 14.6449 14.8042 15.0141 15.1734C15.3833 15.5426 15.8841 15.75 16.4062 15.75Z" fill="white"/>
</g>
</svg>
